<svg width="80" height="428" viewBox="0 0 80 428" fill="none" xmlns="http://www.w3.org/2000/svg">
<mask id="path-1-outside-1_721_837" maskUnits="userSpaceOnUse" x="0.27832" y="0.331543" width="79" height="428" fill="black">
<rect fill="white" x="0.27832" y="0.331543" width="79" height="428"/>
<path d="M75.9999 399.644V425.425H3.27264L3.27264 399.431C3.27264 392.116 4.7286 385.818 7.64054 380.539C10.5288 375.26 14.6836 371.199 20.105 368.359C25.5264 365.494 32.0132 364.062 39.5653 364.062C47.141 364.062 53.6514 365.494 59.0965 368.359C64.5416 371.199 68.7201 375.283 71.632 380.61C74.5439 385.913 75.9999 392.258 75.9999 399.644ZM62.8252 410.049V400.283C62.8252 395.738 62.0203 391.914 60.4104 388.813C58.7769 385.688 56.2556 383.344 52.8465 381.782C49.4137 380.196 44.9867 379.403 39.5653 379.403C34.1912 379.403 29.7996 380.196 26.3905 381.782C22.9814 383.344 20.472 385.676 18.8621 388.778C17.2523 391.879 16.4474 395.702 16.4474 400.248V410.049H62.8252ZM3.27264 337.295H75.9999V352.671H3.27264L3.27264 337.295ZM24.1888 285.191C21.3242 285.475 19.0989 286.694 17.5127 288.849C15.9265 291.003 15.1334 293.927 15.1334 297.62C15.1334 300.129 15.4885 302.248 16.1988 303.976C16.8853 305.705 17.8441 307.03 19.0752 307.954C20.3063 308.853 21.703 309.303 23.2655 309.303C24.5676 309.35 25.704 309.078 26.6746 308.486C27.6453 307.871 28.4857 307.03 29.1959 305.965C29.8825 304.9 30.4862 303.669 31.007 302.272C31.5042 300.875 31.9303 299.384 32.2854 297.797L33.8479 291.263C34.5582 288.091 35.5051 285.179 36.6888 282.528C37.8725 279.876 39.3285 277.58 41.0567 275.638C42.7849 273.697 44.8209 272.194 47.1647 271.128C49.5084 270.039 52.1955 269.483 55.2258 269.459C59.6765 269.483 63.5354 270.619 66.8025 272.868C70.0458 275.094 72.5672 278.314 74.3664 282.528C76.142 286.718 77.0297 291.772 77.0297 297.691C77.0297 303.562 76.1301 308.676 74.3309 313.032C72.5316 317.364 69.8683 320.75 66.3408 323.188C62.7897 325.603 58.3981 326.869 53.1661 326.988V312.109C55.6046 311.943 57.6405 311.244 59.2741 310.013C60.8839 308.759 62.1031 307.09 62.9317 305.006C63.7367 302.899 64.1391 300.52 64.1391 297.868C64.1391 295.264 63.7603 293.003 63.0028 291.086C62.2452 289.145 61.1917 287.641 59.8422 286.576C58.4928 285.511 56.9421 284.978 55.1903 284.978C53.5567 284.978 52.1836 285.463 51.0709 286.434C49.9582 287.381 49.0113 288.778 48.23 290.624C47.4488 292.447 46.7386 294.684 46.0993 297.336L44.1107 305.255C42.6192 311.386 40.2873 316.228 37.115 319.779C33.9426 323.33 29.6694 325.094 24.2954 325.07C19.892 325.094 16.0449 323.922 12.7542 321.555C9.46346 319.163 6.8948 315.885 5.04821 311.718C3.20162 307.551 2.27832 302.816 2.27832 297.513C2.27832 292.116 3.20162 287.404 5.04821 283.38C6.8948 279.332 9.46346 276.183 12.7542 273.934C16.0449 271.685 19.8564 270.525 24.1888 270.454V285.191ZM75.9999 259.117H3.27264L3.27264 230.424C3.27264 224.907 4.32614 220.208 6.43315 216.326C8.51649 212.443 11.4166 209.484 15.1334 207.448C18.8266 205.388 23.088 204.358 27.9175 204.358C32.7471 204.358 37.0084 205.4 40.7016 207.483C44.3948 209.567 47.2712 212.585 49.3309 216.539C51.3905 220.468 52.4204 225.227 52.4204 230.814V249.102H40.0979V233.3C40.0979 230.341 39.5889 227.902 38.5709 225.985C37.5293 224.043 36.097 222.599 34.2741 221.652C32.4275 220.682 30.3086 220.196 27.9175 220.196C25.5028 220.196 23.3957 220.682 21.5965 221.652C19.7736 222.599 18.365 224.043 17.3707 225.985C16.3527 227.926 15.8437 230.388 15.8437 233.371L15.8437 243.74H75.9999V259.117ZM75.9999 194.371H3.27264L3.27264 178.994H63.3224V147.815H75.9999V194.371ZM75.9999 123.241V139.719L3.27264 114.612L3.27264 94.7967L75.9999 69.7257V86.203L19.892 104.42V104.989L75.9999 123.241ZM47.4133 124.271V85.3507H59.4161V124.271H47.4133ZM3.27264 72.6554L3.27264 55.4324L34.5937 38.8486V38.1384L3.27264 21.5546L3.27264 4.33154L50.2897 30.8585H75.9999V46.1284H50.2897L3.27264 72.6554Z"/>
</mask>
<path d="M75.9999 399.644V425.425H3.27264L3.27264 399.431C3.27264 392.116 4.7286 385.818 7.64054 380.539C10.5288 375.26 14.6836 371.199 20.105 368.359C25.5264 365.494 32.0132 364.062 39.5653 364.062C47.141 364.062 53.6514 365.494 59.0965 368.359C64.5416 371.199 68.7201 375.283 71.632 380.61C74.5439 385.913 75.9999 392.258 75.9999 399.644ZM62.8252 410.049V400.283C62.8252 395.738 62.0203 391.914 60.4104 388.813C58.7769 385.688 56.2556 383.344 52.8465 381.782C49.4137 380.196 44.9867 379.403 39.5653 379.403C34.1912 379.403 29.7996 380.196 26.3905 381.782C22.9814 383.344 20.472 385.676 18.8621 388.778C17.2523 391.879 16.4474 395.702 16.4474 400.248V410.049H62.8252ZM3.27264 337.295H75.9999V352.671H3.27264L3.27264 337.295ZM24.1888 285.191C21.3242 285.475 19.0989 286.694 17.5127 288.849C15.9265 291.003 15.1334 293.927 15.1334 297.62C15.1334 300.129 15.4885 302.248 16.1988 303.976C16.8853 305.705 17.8441 307.03 19.0752 307.954C20.3063 308.853 21.703 309.303 23.2655 309.303C24.5676 309.35 25.704 309.078 26.6746 308.486C27.6453 307.871 28.4857 307.03 29.1959 305.965C29.8825 304.9 30.4862 303.669 31.007 302.272C31.5042 300.875 31.9303 299.384 32.2854 297.797L33.8479 291.263C34.5582 288.091 35.5051 285.179 36.6888 282.528C37.8725 279.876 39.3285 277.58 41.0567 275.638C42.7849 273.697 44.8209 272.194 47.1647 271.128C49.5084 270.039 52.1955 269.483 55.2258 269.459C59.6765 269.483 63.5354 270.619 66.8025 272.868C70.0458 275.094 72.5672 278.314 74.3664 282.528C76.142 286.718 77.0297 291.772 77.0297 297.691C77.0297 303.562 76.1301 308.676 74.3309 313.032C72.5316 317.364 69.8683 320.75 66.3408 323.188C62.7897 325.603 58.3981 326.869 53.1661 326.988V312.109C55.6046 311.943 57.6405 311.244 59.2741 310.013C60.8839 308.759 62.1031 307.09 62.9317 305.006C63.7367 302.899 64.1391 300.52 64.1391 297.868C64.1391 295.264 63.7603 293.003 63.0028 291.086C62.2452 289.145 61.1917 287.641 59.8422 286.576C58.4928 285.511 56.9421 284.978 55.1903 284.978C53.5567 284.978 52.1836 285.463 51.0709 286.434C49.9582 287.381 49.0113 288.778 48.23 290.624C47.4488 292.447 46.7386 294.684 46.0993 297.336L44.1107 305.255C42.6192 311.386 40.2873 316.228 37.115 319.779C33.9426 323.33 29.6694 325.094 24.2954 325.07C19.892 325.094 16.0449 323.922 12.7542 321.555C9.46346 319.163 6.8948 315.885 5.04821 311.718C3.20162 307.551 2.27832 302.816 2.27832 297.513C2.27832 292.116 3.20162 287.404 5.04821 283.38C6.8948 279.332 9.46346 276.183 12.7542 273.934C16.0449 271.685 19.8564 270.525 24.1888 270.454V285.191ZM75.9999 259.117H3.27264L3.27264 230.424C3.27264 224.907 4.32614 220.208 6.43315 216.326C8.51649 212.443 11.4166 209.484 15.1334 207.448C18.8266 205.388 23.088 204.358 27.9175 204.358C32.7471 204.358 37.0084 205.4 40.7016 207.483C44.3948 209.567 47.2712 212.585 49.3309 216.539C51.3905 220.468 52.4204 225.227 52.4204 230.814V249.102H40.0979V233.3C40.0979 230.341 39.5889 227.902 38.5709 225.985C37.5293 224.043 36.097 222.599 34.2741 221.652C32.4275 220.682 30.3086 220.196 27.9175 220.196C25.5028 220.196 23.3957 220.682 21.5965 221.652C19.7736 222.599 18.365 224.043 17.3707 225.985C16.3527 227.926 15.8437 230.388 15.8437 233.371L15.8437 243.74H75.9999V259.117ZM75.9999 194.371H3.27264L3.27264 178.994H63.3224V147.815H75.9999V194.371ZM75.9999 123.241V139.719L3.27264 114.612L3.27264 94.7967L75.9999 69.7257V86.203L19.892 104.42V104.989L75.9999 123.241ZM47.4133 124.271V85.3507H59.4161V124.271H47.4133ZM3.27264 72.6554L3.27264 55.4324L34.5937 38.8486V38.1384L3.27264 21.5546L3.27264 4.33154L50.2897 30.8585H75.9999V46.1284H50.2897L3.27264 72.6554Z" stroke="#28404F" stroke-width="4" mask="url(#path-1-outside-1_721_837)"/>
<path d="M75.9999 399.644V425.425H3.27264L3.27264 399.431C3.27264 392.116 4.7286 385.818 7.64054 380.539C10.5288 375.26 14.6836 371.199 20.105 368.359C25.5264 365.494 32.0132 364.062 39.5653 364.062C47.141 364.062 53.6514 365.494 59.0965 368.359C64.5416 371.199 68.7201 375.283 71.632 380.61C74.5439 385.913 75.9999 392.258 75.9999 399.644ZM62.8252 410.049V400.283C62.8252 395.738 62.0203 391.914 60.4104 388.813C58.7769 385.688 56.2556 383.344 52.8465 381.782C49.4137 380.196 44.9867 379.403 39.5653 379.403C34.1912 379.403 29.7996 380.196 26.3905 381.782C22.9814 383.344 20.472 385.676 18.8621 388.778C17.2523 391.879 16.4474 395.702 16.4474 400.248V410.049H62.8252ZM3.27264 337.295H75.9999V352.671H3.27264L3.27264 337.295ZM24.1888 285.191C21.3242 285.475 19.0989 286.694 17.5127 288.849C15.9265 291.003 15.1334 293.927 15.1334 297.62C15.1334 300.129 15.4885 302.248 16.1988 303.976C16.8853 305.705 17.8441 307.03 19.0752 307.954C20.3063 308.853 21.703 309.303 23.2655 309.303C24.5676 309.35 25.704 309.078 26.6746 308.486C27.6453 307.871 28.4857 307.03 29.1959 305.965C29.8825 304.9 30.4862 303.669 31.007 302.272C31.5042 300.875 31.9303 299.384 32.2854 297.797L33.8479 291.263C34.5582 288.091 35.5051 285.179 36.6888 282.528C37.8725 279.876 39.3285 277.58 41.0567 275.638C42.7849 273.697 44.8209 272.194 47.1647 271.128C49.5084 270.039 52.1955 269.483 55.2258 269.459C59.6765 269.483 63.5354 270.619 66.8025 272.868C70.0458 275.094 72.5672 278.314 74.3664 282.528C76.142 286.718 77.0297 291.772 77.0297 297.691C77.0297 303.562 76.1301 308.676 74.3309 313.032C72.5316 317.364 69.8683 320.75 66.3408 323.188C62.7897 325.603 58.3981 326.869 53.1661 326.988V312.109C55.6046 311.943 57.6405 311.244 59.2741 310.013C60.8839 308.759 62.1031 307.09 62.9317 305.006C63.7367 302.899 64.1391 300.52 64.1391 297.868C64.1391 295.264 63.7603 293.003 63.0028 291.086C62.2452 289.145 61.1917 287.641 59.8422 286.576C58.4928 285.511 56.9421 284.978 55.1903 284.978C53.5567 284.978 52.1836 285.463 51.0709 286.434C49.9582 287.381 49.0113 288.778 48.23 290.624C47.4488 292.447 46.7386 294.684 46.0993 297.336L44.1107 305.255C42.6192 311.386 40.2873 316.228 37.115 319.779C33.9426 323.33 29.6694 325.094 24.2954 325.07C19.892 325.094 16.0449 323.922 12.7542 321.555C9.46346 319.163 6.8948 315.885 5.04821 311.718C3.20162 307.551 2.27832 302.816 2.27832 297.513C2.27832 292.116 3.20162 287.404 5.04821 283.38C6.8948 279.332 9.46346 276.183 12.7542 273.934C16.0449 271.685 19.8564 270.525 24.1888 270.454V285.191ZM75.9999 259.117H3.27264L3.27264 230.424C3.27264 224.907 4.32614 220.208 6.43315 216.326C8.51649 212.443 11.4166 209.484 15.1334 207.448C18.8266 205.388 23.088 204.358 27.9175 204.358C32.7471 204.358 37.0084 205.4 40.7016 207.483C44.3948 209.567 47.2712 212.585 49.3309 216.539C51.3905 220.468 52.4204 225.227 52.4204 230.814V249.102H40.0979V233.3C40.0979 230.341 39.5889 227.902 38.5709 225.985C37.5293 224.043 36.097 222.599 34.2741 221.652C32.4275 220.682 30.3086 220.196 27.9175 220.196C25.5028 220.196 23.3957 220.682 21.5965 221.652C19.7736 222.599 18.365 224.043 17.3707 225.985C16.3527 227.926 15.8437 230.388 15.8437 233.371L15.8437 243.74H75.9999V259.117ZM75.9999 194.371H3.27264L3.27264 178.994H63.3224V147.815H75.9999V194.371ZM75.9999 123.241V139.719L3.27264 114.612L3.27264 94.7967L75.9999 69.7257V86.203L19.892 104.42V104.989L75.9999 123.241ZM47.4133 124.271V85.3507H59.4161V124.271H47.4133ZM3.27264 72.6554L3.27264 55.4324L34.5937 38.8486V38.1384L3.27264 21.5546L3.27264 4.33154L50.2897 30.8585H75.9999V46.1284H50.2897L3.27264 72.6554Z" stroke="black" stroke-opacity="0.2" stroke-width="4" mask="url(#path-1-outside-1_721_837)"/>
</svg>
