<?xml version="1.0" encoding="utf-8"?>
<!-- Generator: Adobe Illustrator 17.0.0, SVG Export Plug-In . SVG Version: 6.00 Build 0)  -->
<!DOCTYPE svg PUBLIC "-//W3C//DTD SVG 1.1//EN" "http://www.w3.org/Graphics/SVG/1.1/DTD/svg11.dtd">
<svg version="1.1" id="Layer_1" xmlns="http://www.w3.org/2000/svg" xmlns:xlink="http://www.w3.org/1999/xlink" x="0px" y="0px"
	 width="20px" height="20px" viewBox="0 0 20 20" enable-background="new 0 0 20 20" xml:space="preserve">
<g>
	<g>
		<g>
			<path fill="#28404F" d="M18.456,5.703l-0.573-0.576c-0.18-0.18-0.42-0.279-0.676-0.279s-0.496,0.099-0.676,0.279l-6.528,6.528
				L3.468,5.12c-0.18-0.18-0.42-0.279-0.675-0.279S2.297,4.94,2.117,5.12L1.544,5.693c-0.372,0.372-0.372,0.979,0,1.352l7.781,7.809
				c0.18,0.18,0.42,0.306,0.678,0.306h0.004c0.256,0,0.496-0.127,0.675-0.306l7.774-7.788c0.18-0.18,0.279-0.427,0.279-0.682
				C18.735,6.126,18.636,5.882,18.456,5.703z"/>
		</g>
	</g>
</g>
</svg>
