<svg width="80" height="583" viewBox="0 0 80 583" fill="none" xmlns="http://www.w3.org/2000/svg">
<mask id="path-1-outside-1_721_838" maskUnits="userSpaceOnUse" x="0.970215" y="-0.870605" width="79" height="584" fill="black">
<rect fill="white" x="0.970215" y="-0.870605" width="79" height="584"/>
<path d="M55.8111 43.9263C58.6757 43.6422 60.9011 42.423 62.4873 40.2686C64.0734 38.1142 64.8665 35.1905 64.8665 31.4973C64.8665 28.9878 64.5114 26.869 63.8012 25.1408C63.1146 23.4125 62.1558 22.0868 60.9248 21.1635C59.6937 20.2639 58.2969 19.8141 56.7344 19.8141C55.4323 19.7667 54.296 20.039 53.3253 20.6308C52.3547 21.2463 51.5143 22.0868 50.804 23.1521C50.1175 24.2175 49.5138 25.4485 48.9929 26.8453C48.4958 28.2421 48.0696 29.7336 47.7145 31.3197L46.152 37.8538C45.4418 41.0262 44.4948 43.9381 43.3111 46.5896C42.1274 49.2411 40.6714 51.5375 38.9432 53.4788C37.215 55.4201 35.179 56.9234 32.8353 57.9888C30.4915 59.0778 27.8045 59.6341 24.7742 59.6578C20.3234 59.6341 16.4645 58.4978 13.1975 56.2487C9.95412 54.0233 7.43281 50.8036 5.63357 46.5896C3.858 42.3993 2.97021 37.3448 2.97021 31.4263C2.97022 25.5551 3.86984 20.4414 5.66908 16.0854C7.46832 11.753 10.1317 8.36756 13.6591 5.92911C17.2103 3.51434 21.6018 2.24777 26.8339 2.12939V17.0087C24.3954 17.1744 22.3594 17.8728 20.7259 19.1038C19.116 20.3586 17.8968 22.0276 17.0682 24.1109C16.2633 26.2179 15.8608 28.5972 15.8608 31.2487C15.8608 33.8529 16.2396 36.1138 16.9972 38.0314C17.7548 39.9727 18.8083 41.476 20.1577 42.5413C21.5071 43.6067 23.0578 44.1393 24.8097 44.1393C26.4432 44.1393 27.8163 43.654 28.929 42.6834C30.0417 41.7364 30.9887 40.3396 31.7699 38.493C32.5512 36.6701 33.2614 34.4329 33.9006 31.7814L35.8893 23.8624C37.3807 17.7307 39.7126 12.8893 42.885 9.3382C46.0573 5.78707 50.3305 4.02334 55.7046 4.04701C60.108 4.02334 63.9551 5.19521 67.2458 7.56264C70.5365 9.95373 73.1052 13.2326 74.9518 17.3993C76.7983 21.566 77.7216 26.3008 77.7216 31.6038C77.7216 37.0016 76.7983 41.7127 74.9518 45.7374C73.1052 49.7856 70.5365 52.9343 67.2458 55.1834C63.9551 57.4324 60.1435 58.5925 55.8111 58.6635L55.8111 43.9263ZM4.00004 70.0005H76.7273V119.006H64.0498V85.3769H46.7202L46.7202 116.485H34.0427L34.0427 85.3769H16.6776L16.6776 119.148H4.00004L4.00004 70.0005ZM4.00004 143.766L4.00004 127.289L76.7273 152.396L76.7273 172.211L4.00004 197.282L4.00004 180.805L60.108 162.587V162.019L4.00004 143.766ZM32.5867 142.737L32.5867 181.657L20.5838 181.657L20.5838 142.737H32.5867ZM4.00004 206.036H76.7273V234.729C76.7273 240.221 75.7448 244.909 73.7799 248.791C71.8386 252.698 69.0805 255.669 65.5057 257.705C61.9546 259.764 57.7761 260.794 52.9702 260.794C48.1407 260.794 43.9858 259.753 40.5057 257.669C37.0493 255.586 34.3978 252.567 32.5512 248.614C30.7046 244.684 29.7813 239.925 29.7813 234.338V215.127H42.1392L42.1392 231.852C42.1392 234.788 42.5417 237.226 43.3466 239.168C44.1516 241.109 45.3589 242.553 46.9688 243.5C48.5786 244.471 50.5791 244.956 52.9702 244.956C55.385 244.956 57.421 244.471 59.0782 243.5C60.7354 242.553 61.9901 241.097 62.8424 239.132C63.7183 237.191 64.1563 234.741 64.1563 231.781V221.412H4.00004L4.00004 206.036ZM37.0966 245.311L4.00003 263.387L4.00004 246.412L37.0966 228.727V245.311ZM51.2657 335.83V320.276C53.278 319.992 55.0654 319.412 56.6279 318.536C58.2141 317.66 59.5635 316.535 60.6762 315.162C61.7889 313.789 62.6411 312.203 63.233 310.404C63.8248 308.628 64.1208 306.699 64.1208 304.615C64.1208 300.851 63.1856 297.572 61.3154 294.779C59.4688 291.985 56.7699 289.819 53.2188 288.28C49.6913 286.741 45.4063 285.972 40.3637 285.972C35.179 285.972 30.823 286.741 27.2955 288.28C23.768 289.842 21.1047 292.02 19.3054 294.814C17.5062 297.608 16.6066 300.839 16.6066 304.509C16.6066 306.568 16.8788 308.474 17.4233 310.226C17.9678 312.002 18.7609 313.576 19.8026 314.949C20.8679 316.322 22.1582 317.458 23.6733 318.358C25.1885 319.281 26.9167 319.921 28.858 320.276L28.787 335.83C25.4489 335.427 22.2292 334.421 19.1279 332.811C16.0502 331.225 13.2922 329.083 10.8537 326.384C8.43895 323.708 6.52134 320.512 5.10088 316.796C3.7041 313.102 3.00571 308.924 3.00571 304.26C3.00571 297.773 4.47352 291.973 7.40912 286.859C10.3447 281.77 14.5943 277.745 20.1577 274.786C25.7212 271.85 32.4565 270.382 40.3637 270.382C48.2945 270.382 55.0417 271.874 60.6051 274.857C66.1686 277.84 70.4063 281.888 73.3182 287.002C76.2538 292.115 77.7216 297.868 77.7216 304.26C77.7216 308.474 77.1298 312.38 75.9461 315.979C74.7623 319.601 73.0341 322.809 70.7614 325.602C68.5123 328.396 65.7543 330.669 62.4873 332.421C59.2202 334.196 55.4797 335.333 51.2657 335.83ZM4.00003 346.856H76.7273V362.232H46.7202L46.7202 393.447H76.7273V408.788H4.00003L4.00003 393.447H34.0426L34.0426 362.232H4.00003L4.00003 346.856ZM4.00003 457.145L4.00003 440.668L76.7273 465.775V485.59L4.00002 510.661L4.00002 494.184L60.108 475.966V475.398L4.00003 457.145ZM32.5867 456.116L32.5867 495.036H20.5838L20.5838 456.116H32.5867ZM4.00002 545.196L4.00002 519.415H76.7273V545.409C76.7273 552.724 75.2713 559.022 72.3594 564.301C69.4711 569.58 65.3163 573.64 59.8949 576.481C54.4735 579.346 47.9868 580.778 40.4347 580.778C32.8589 580.778 26.3485 579.346 20.9034 576.481C15.4584 573.64 11.2799 569.557 8.36792 564.23C5.45599 558.927 4.00002 552.582 4.00002 545.196ZM17.1747 534.791V544.557C17.1747 549.102 17.9797 552.925 19.5895 556.027C21.223 559.152 23.7443 561.496 27.1534 563.058C30.5862 564.644 35.0133 565.437 40.4347 565.437C45.8087 565.437 50.2003 564.644 53.6094 563.058C57.0185 561.496 59.528 559.164 61.1378 556.062C62.7477 552.961 63.5526 549.138 63.5526 544.592V534.791H17.1747Z"/>
</mask>
<path d="M55.8111 43.9263C58.6757 43.6422 60.9011 42.423 62.4873 40.2686C64.0734 38.1142 64.8665 35.1905 64.8665 31.4973C64.8665 28.9878 64.5114 26.869 63.8012 25.1408C63.1146 23.4125 62.1558 22.0868 60.9248 21.1635C59.6937 20.2639 58.2969 19.8141 56.7344 19.8141C55.4323 19.7667 54.296 20.039 53.3253 20.6308C52.3547 21.2463 51.5143 22.0868 50.804 23.1521C50.1175 24.2175 49.5138 25.4485 48.9929 26.8453C48.4958 28.2421 48.0696 29.7336 47.7145 31.3197L46.152 37.8538C45.4418 41.0262 44.4948 43.9381 43.3111 46.5896C42.1274 49.2411 40.6714 51.5375 38.9432 53.4788C37.215 55.4201 35.179 56.9234 32.8353 57.9888C30.4915 59.0778 27.8045 59.6341 24.7742 59.6578C20.3234 59.6341 16.4645 58.4978 13.1975 56.2487C9.95412 54.0233 7.43281 50.8036 5.63357 46.5896C3.858 42.3993 2.97021 37.3448 2.97021 31.4263C2.97022 25.5551 3.86984 20.4414 5.66908 16.0854C7.46832 11.753 10.1317 8.36756 13.6591 5.92911C17.2103 3.51434 21.6018 2.24777 26.8339 2.12939V17.0087C24.3954 17.1744 22.3594 17.8728 20.7259 19.1038C19.116 20.3586 17.8968 22.0276 17.0682 24.1109C16.2633 26.2179 15.8608 28.5972 15.8608 31.2487C15.8608 33.8529 16.2396 36.1138 16.9972 38.0314C17.7548 39.9727 18.8083 41.476 20.1577 42.5413C21.5071 43.6067 23.0578 44.1393 24.8097 44.1393C26.4432 44.1393 27.8163 43.654 28.929 42.6834C30.0417 41.7364 30.9887 40.3396 31.7699 38.493C32.5512 36.6701 33.2614 34.4329 33.9006 31.7814L35.8893 23.8624C37.3807 17.7307 39.7126 12.8893 42.885 9.3382C46.0573 5.78707 50.3305 4.02334 55.7046 4.04701C60.108 4.02334 63.9551 5.19521 67.2458 7.56264C70.5365 9.95373 73.1052 13.2326 74.9518 17.3993C76.7983 21.566 77.7216 26.3008 77.7216 31.6038C77.7216 37.0016 76.7983 41.7127 74.9518 45.7374C73.1052 49.7856 70.5365 52.9343 67.2458 55.1834C63.9551 57.4324 60.1435 58.5925 55.8111 58.6635L55.8111 43.9263ZM4.00004 70.0005H76.7273V119.006H64.0498V85.3769H46.7202L46.7202 116.485H34.0427L34.0427 85.3769H16.6776L16.6776 119.148H4.00004L4.00004 70.0005ZM4.00004 143.766L4.00004 127.289L76.7273 152.396L76.7273 172.211L4.00004 197.282L4.00004 180.805L60.108 162.587V162.019L4.00004 143.766ZM32.5867 142.737L32.5867 181.657L20.5838 181.657L20.5838 142.737H32.5867ZM4.00004 206.036H76.7273V234.729C76.7273 240.221 75.7448 244.909 73.7799 248.791C71.8386 252.698 69.0805 255.669 65.5057 257.705C61.9546 259.764 57.7761 260.794 52.9702 260.794C48.1407 260.794 43.9858 259.753 40.5057 257.669C37.0493 255.586 34.3978 252.567 32.5512 248.614C30.7046 244.684 29.7813 239.925 29.7813 234.338V215.127H42.1392L42.1392 231.852C42.1392 234.788 42.5417 237.226 43.3466 239.168C44.1516 241.109 45.3589 242.553 46.9688 243.5C48.5786 244.471 50.5791 244.956 52.9702 244.956C55.385 244.956 57.421 244.471 59.0782 243.5C60.7354 242.553 61.9901 241.097 62.8424 239.132C63.7183 237.191 64.1563 234.741 64.1563 231.781V221.412H4.00004L4.00004 206.036ZM37.0966 245.311L4.00003 263.387L4.00004 246.412L37.0966 228.727V245.311ZM51.2657 335.83V320.276C53.278 319.992 55.0654 319.412 56.6279 318.536C58.2141 317.66 59.5635 316.535 60.6762 315.162C61.7889 313.789 62.6411 312.203 63.233 310.404C63.8248 308.628 64.1208 306.699 64.1208 304.615C64.1208 300.851 63.1856 297.572 61.3154 294.779C59.4688 291.985 56.7699 289.819 53.2188 288.28C49.6913 286.741 45.4063 285.972 40.3637 285.972C35.179 285.972 30.823 286.741 27.2955 288.28C23.768 289.842 21.1047 292.02 19.3054 294.814C17.5062 297.608 16.6066 300.839 16.6066 304.509C16.6066 306.568 16.8788 308.474 17.4233 310.226C17.9678 312.002 18.7609 313.576 19.8026 314.949C20.8679 316.322 22.1582 317.458 23.6733 318.358C25.1885 319.281 26.9167 319.921 28.858 320.276L28.787 335.83C25.4489 335.427 22.2292 334.421 19.1279 332.811C16.0502 331.225 13.2922 329.083 10.8537 326.384C8.43895 323.708 6.52134 320.512 5.10088 316.796C3.7041 313.102 3.00571 308.924 3.00571 304.26C3.00571 297.773 4.47352 291.973 7.40912 286.859C10.3447 281.77 14.5943 277.745 20.1577 274.786C25.7212 271.85 32.4565 270.382 40.3637 270.382C48.2945 270.382 55.0417 271.874 60.6051 274.857C66.1686 277.84 70.4063 281.888 73.3182 287.002C76.2538 292.115 77.7216 297.868 77.7216 304.26C77.7216 308.474 77.1298 312.38 75.9461 315.979C74.7623 319.601 73.0341 322.809 70.7614 325.602C68.5123 328.396 65.7543 330.669 62.4873 332.421C59.2202 334.196 55.4797 335.333 51.2657 335.83ZM4.00003 346.856H76.7273V362.232H46.7202L46.7202 393.447H76.7273V408.788H4.00003L4.00003 393.447H34.0426L34.0426 362.232H4.00003L4.00003 346.856ZM4.00003 457.145L4.00003 440.668L76.7273 465.775V485.59L4.00002 510.661L4.00002 494.184L60.108 475.966V475.398L4.00003 457.145ZM32.5867 456.116L32.5867 495.036H20.5838L20.5838 456.116H32.5867ZM4.00002 545.196L4.00002 519.415H76.7273V545.409C76.7273 552.724 75.2713 559.022 72.3594 564.301C69.4711 569.58 65.3163 573.64 59.8949 576.481C54.4735 579.346 47.9868 580.778 40.4347 580.778C32.8589 580.778 26.3485 579.346 20.9034 576.481C15.4584 573.64 11.2799 569.557 8.36792 564.23C5.45599 558.927 4.00002 552.582 4.00002 545.196ZM17.1747 534.791V544.557C17.1747 549.102 17.9797 552.925 19.5895 556.027C21.223 559.152 23.7443 561.496 27.1534 563.058C30.5862 564.644 35.0133 565.437 40.4347 565.437C45.8087 565.437 50.2003 564.644 53.6094 563.058C57.0185 561.496 59.528 559.164 61.1378 556.062C62.7477 552.961 63.5526 549.138 63.5526 544.592V534.791H17.1747Z" stroke="white" stroke-width="4" mask="url(#path-1-outside-1_721_838)"/>
<path d="M55.8111 43.9263C58.6757 43.6422 60.9011 42.423 62.4873 40.2686C64.0734 38.1142 64.8665 35.1905 64.8665 31.4973C64.8665 28.9878 64.5114 26.869 63.8012 25.1408C63.1146 23.4125 62.1558 22.0868 60.9248 21.1635C59.6937 20.2639 58.2969 19.8141 56.7344 19.8141C55.4323 19.7667 54.296 20.039 53.3253 20.6308C52.3547 21.2463 51.5143 22.0868 50.804 23.1521C50.1175 24.2175 49.5138 25.4485 48.9929 26.8453C48.4958 28.2421 48.0696 29.7336 47.7145 31.3197L46.152 37.8538C45.4418 41.0262 44.4948 43.9381 43.3111 46.5896C42.1274 49.2411 40.6714 51.5375 38.9432 53.4788C37.215 55.4201 35.179 56.9234 32.8353 57.9888C30.4915 59.0778 27.8045 59.6341 24.7742 59.6578C20.3234 59.6341 16.4645 58.4978 13.1975 56.2487C9.95412 54.0233 7.43281 50.8036 5.63357 46.5896C3.858 42.3993 2.97021 37.3448 2.97021 31.4263C2.97022 25.5551 3.86984 20.4414 5.66908 16.0854C7.46832 11.753 10.1317 8.36756 13.6591 5.92911C17.2103 3.51434 21.6018 2.24777 26.8339 2.12939V17.0087C24.3954 17.1744 22.3594 17.8728 20.7259 19.1038C19.116 20.3586 17.8968 22.0276 17.0682 24.1109C16.2633 26.2179 15.8608 28.5972 15.8608 31.2487C15.8608 33.8529 16.2396 36.1138 16.9972 38.0314C17.7548 39.9727 18.8083 41.476 20.1577 42.5413C21.5071 43.6067 23.0578 44.1393 24.8097 44.1393C26.4432 44.1393 27.8163 43.654 28.929 42.6834C30.0417 41.7364 30.9887 40.3396 31.7699 38.493C32.5512 36.6701 33.2614 34.4329 33.9006 31.7814L35.8893 23.8624C37.3807 17.7307 39.7126 12.8893 42.885 9.3382C46.0573 5.78707 50.3305 4.02334 55.7046 4.04701C60.108 4.02334 63.9551 5.19521 67.2458 7.56264C70.5365 9.95373 73.1052 13.2326 74.9518 17.3993C76.7983 21.566 77.7216 26.3008 77.7216 31.6038C77.7216 37.0016 76.7983 41.7127 74.9518 45.7374C73.1052 49.7856 70.5365 52.9343 67.2458 55.1834C63.9551 57.4324 60.1435 58.5925 55.8111 58.6635L55.8111 43.9263ZM4.00004 70.0005H76.7273V119.006H64.0498V85.3769H46.7202L46.7202 116.485H34.0427L34.0427 85.3769H16.6776L16.6776 119.148H4.00004L4.00004 70.0005ZM4.00004 143.766L4.00004 127.289L76.7273 152.396L76.7273 172.211L4.00004 197.282L4.00004 180.805L60.108 162.587V162.019L4.00004 143.766ZM32.5867 142.737L32.5867 181.657L20.5838 181.657L20.5838 142.737H32.5867ZM4.00004 206.036H76.7273V234.729C76.7273 240.221 75.7448 244.909 73.7799 248.791C71.8386 252.698 69.0805 255.669 65.5057 257.705C61.9546 259.764 57.7761 260.794 52.9702 260.794C48.1407 260.794 43.9858 259.753 40.5057 257.669C37.0493 255.586 34.3978 252.567 32.5512 248.614C30.7046 244.684 29.7813 239.925 29.7813 234.338V215.127H42.1392L42.1392 231.852C42.1392 234.788 42.5417 237.226 43.3466 239.168C44.1516 241.109 45.3589 242.553 46.9688 243.5C48.5786 244.471 50.5791 244.956 52.9702 244.956C55.385 244.956 57.421 244.471 59.0782 243.5C60.7354 242.553 61.9901 241.097 62.8424 239.132C63.7183 237.191 64.1563 234.741 64.1563 231.781V221.412H4.00004L4.00004 206.036ZM37.0966 245.311L4.00003 263.387L4.00004 246.412L37.0966 228.727V245.311ZM51.2657 335.83V320.276C53.278 319.992 55.0654 319.412 56.6279 318.536C58.2141 317.66 59.5635 316.535 60.6762 315.162C61.7889 313.789 62.6411 312.203 63.233 310.404C63.8248 308.628 64.1208 306.699 64.1208 304.615C64.1208 300.851 63.1856 297.572 61.3154 294.779C59.4688 291.985 56.7699 289.819 53.2188 288.28C49.6913 286.741 45.4063 285.972 40.3637 285.972C35.179 285.972 30.823 286.741 27.2955 288.28C23.768 289.842 21.1047 292.02 19.3054 294.814C17.5062 297.608 16.6066 300.839 16.6066 304.509C16.6066 306.568 16.8788 308.474 17.4233 310.226C17.9678 312.002 18.7609 313.576 19.8026 314.949C20.8679 316.322 22.1582 317.458 23.6733 318.358C25.1885 319.281 26.9167 319.921 28.858 320.276L28.787 335.83C25.4489 335.427 22.2292 334.421 19.1279 332.811C16.0502 331.225 13.2922 329.083 10.8537 326.384C8.43895 323.708 6.52134 320.512 5.10088 316.796C3.7041 313.102 3.00571 308.924 3.00571 304.26C3.00571 297.773 4.47352 291.973 7.40912 286.859C10.3447 281.77 14.5943 277.745 20.1577 274.786C25.7212 271.85 32.4565 270.382 40.3637 270.382C48.2945 270.382 55.0417 271.874 60.6051 274.857C66.1686 277.84 70.4063 281.888 73.3182 287.002C76.2538 292.115 77.7216 297.868 77.7216 304.26C77.7216 308.474 77.1298 312.38 75.9461 315.979C74.7623 319.601 73.0341 322.809 70.7614 325.602C68.5123 328.396 65.7543 330.669 62.4873 332.421C59.2202 334.196 55.4797 335.333 51.2657 335.83ZM4.00003 346.856H76.7273V362.232H46.7202L46.7202 393.447H76.7273V408.788H4.00003L4.00003 393.447H34.0426L34.0426 362.232H4.00003L4.00003 346.856ZM4.00003 457.145L4.00003 440.668L76.7273 465.775V485.59L4.00002 510.661L4.00002 494.184L60.108 475.966V475.398L4.00003 457.145ZM32.5867 456.116L32.5867 495.036H20.5838L20.5838 456.116H32.5867ZM4.00002 545.196L4.00002 519.415H76.7273V545.409C76.7273 552.724 75.2713 559.022 72.3594 564.301C69.4711 569.58 65.3163 573.64 59.8949 576.481C54.4735 579.346 47.9868 580.778 40.4347 580.778C32.8589 580.778 26.3485 579.346 20.9034 576.481C15.4584 573.64 11.2799 569.557 8.36792 564.23C5.45599 558.927 4.00002 552.582 4.00002 545.196ZM17.1747 534.791V544.557C17.1747 549.102 17.9797 552.925 19.5895 556.027C21.223 559.152 23.7443 561.496 27.1534 563.058C30.5862 564.644 35.0133 565.437 40.4347 565.437C45.8087 565.437 50.2003 564.644 53.6094 563.058C57.0185 561.496 59.528 559.164 61.1378 556.062C62.7477 552.961 63.5526 549.138 63.5526 544.592V534.791H17.1747Z" stroke="black" stroke-opacity="0.2" stroke-width="4" mask="url(#path-1-outside-1_721_838)"/>
</svg>
