<svg width="81" height="523" viewBox="0 0 81 523" fill="none" xmlns="http://www.w3.org/2000/svg">
<mask id="path-1-outside-1_8_118" maskUnits="userSpaceOnUse" x="0.970215" y="0.275391" width="79" height="522" fill="black">
<rect fill="white" x="0.970215" y="0.275391" width="79" height="522"/>
<path d="M55.8111 45.0723C58.6757 44.7882 60.9011 43.569 62.4873 41.4146C64.0734 39.2602 64.8665 36.3365 64.8665 32.6433C64.8665 30.1338 64.5114 28.015 63.8012 26.2868C63.1146 24.5585 62.1558 23.2328 60.9248 22.3095C59.6937 21.4099 58.2969 20.9601 56.7344 20.9601C55.4323 20.9127 54.296 21.185 53.3253 21.7768C52.3547 22.3923 51.5143 23.2328 50.804 24.2981C50.1175 25.3635 49.5138 26.5945 48.9929 27.9913C48.4958 29.3881 48.0696 30.8796 47.7145 32.4657L46.152 38.9998C45.4418 42.1722 44.4948 45.0841 43.3111 47.7356C42.1274 50.3871 40.6714 52.6835 38.9432 54.6248C37.215 56.5661 35.179 58.0694 32.8353 59.1348C30.4915 60.2238 27.8045 60.7801 24.7742 60.8038C20.3234 60.7801 16.4645 59.6438 13.1975 57.3947C9.95412 55.1693 7.43281 51.9496 5.63357 47.7356C3.858 43.5453 2.97021 38.4908 2.97021 32.5723C2.97022 26.7011 3.86984 21.5874 5.66908 17.2314C7.46832 12.899 10.1317 9.51355 13.6591 7.07511C17.2103 4.66033 21.6018 3.39376 26.8339 3.27539V18.1547C24.3954 18.3204 22.3594 19.0188 20.7259 20.2498C19.116 21.5046 17.8968 23.1736 17.0682 25.2569C16.2633 27.3639 15.8608 29.7432 15.8608 32.3947C15.8608 34.9989 16.2396 37.2598 16.9972 39.1774C17.7548 41.1187 18.8083 42.622 20.1577 43.6873C21.5071 44.7527 23.0578 45.2853 24.8097 45.2853C26.4432 45.2853 27.8163 44.8 28.929 43.8294C30.0417 42.8824 30.9887 41.4856 31.7699 39.639C32.5512 37.8161 33.2614 35.5789 33.9006 32.9274L35.8893 25.0083C37.3807 18.8767 39.7126 14.0353 42.885 10.4842C46.0573 6.93306 50.3305 5.16933 55.7046 5.19301C60.108 5.16933 63.9551 6.34121 67.2458 8.70863C70.5365 11.0997 73.1052 14.3786 74.9518 18.5453C76.7983 22.7119 77.7216 27.4468 77.7216 32.7498C77.7216 38.1476 76.7983 42.8587 74.9518 46.8833C73.1052 50.9316 70.5365 54.0803 67.2458 56.3294C63.9551 58.5784 60.1435 59.7385 55.8111 59.8095L55.8111 45.0723ZM4.00004 71.1465H76.7273V86.5229L46.7202 86.5229L46.7202 117.737H76.7273V133.078H4.00004L4.00004 117.737L34.0427 117.737L34.0427 86.5229H4.00004L4.00004 71.1465ZM40.3637 212.588C32.4328 212.588 25.6856 211.085 20.1222 208.078C14.5587 205.095 10.3092 201.023 7.37362 195.862C4.46169 190.725 3.00572 184.949 3.00572 178.533C3.00572 172.07 4.47352 166.27 7.40913 161.132C10.3447 155.995 14.5943 151.935 20.1577 148.952C25.7212 145.969 32.4565 144.477 40.3637 144.477C48.2945 144.477 55.0417 145.969 60.6052 148.952C66.1686 151.935 70.4063 155.995 73.3182 161.132C76.2538 166.27 77.7216 172.07 77.7216 178.533C77.7216 184.949 76.2538 190.725 73.3182 195.862C70.4063 201.023 66.1686 205.095 60.6051 208.078C55.0417 211.085 48.2945 212.588 40.3637 212.588ZM40.3637 196.999C45.501 196.999 49.8334 196.229 53.3608 194.691C56.8883 193.175 59.5635 191.033 61.3864 188.263C63.2093 185.493 64.1208 182.25 64.1208 178.533C64.1208 174.816 63.2093 171.573 61.3864 168.803C59.5635 166.033 56.8883 163.878 53.3608 162.34C49.8334 160.825 45.501 160.067 40.3637 160.067C35.2264 160.067 30.894 160.825 27.3665 162.34C23.8391 163.878 21.1639 166.033 19.3409 168.803C17.518 171.573 16.6066 174.816 16.6066 178.533C16.6066 182.25 17.518 185.493 19.3409 188.263C21.1639 191.033 23.8391 193.175 27.3665 194.691C30.894 196.229 35.2264 196.999 40.3637 196.999ZM4.00004 223.979H76.7273V252.672C76.7273 258.188 75.6738 262.887 73.5668 266.77C71.4835 270.652 68.5834 273.612 64.8665 275.648C61.1733 277.707 56.912 278.737 52.0824 278.737C47.2529 278.737 42.9915 277.695 39.2983 275.612C35.6052 273.529 32.7287 270.51 30.6691 266.557C28.6094 262.627 27.5796 257.868 27.5796 252.281V233.993H39.902V249.795C39.902 252.755 40.411 255.193 41.429 257.111C42.4707 259.052 43.903 260.496 45.7259 261.443C47.5725 262.414 49.6913 262.899 52.0824 262.899C54.4972 262.899 56.6042 262.414 58.4034 261.443C60.2264 260.496 61.635 259.052 62.6293 257.111C63.6473 255.169 64.1563 252.707 64.1563 249.724V239.355H4.00004L4.00004 223.979ZM4.00003 288.725H76.7273V317.418C76.7273 322.934 75.6738 327.633 73.5668 331.516C71.4835 335.398 68.5834 338.358 64.8665 340.394C61.1733 342.453 56.912 343.483 52.0824 343.483C47.2529 343.483 42.9915 342.441 39.2983 340.358C35.6051 338.275 32.7287 335.256 30.6691 331.303C28.6094 327.373 27.5796 322.614 27.5796 317.027L27.5796 298.739L39.902 298.739V314.541C39.902 317.501 40.411 319.939 41.429 321.857C42.4707 323.798 43.903 325.242 45.7259 326.189C47.5725 327.16 49.6913 327.645 52.0824 327.645C54.4972 327.645 56.6042 327.16 58.4034 326.189C60.2264 325.242 61.635 323.798 62.6293 321.857C63.6473 319.915 64.1563 317.453 64.1563 314.47L64.1563 304.101H4.00003L4.00003 288.725ZM76.7273 368.847H4.00003L4.00003 353.471H76.7273V368.847ZM76.7273 442.329H4.00003L4.00003 429.048L49.7742 397.407V396.874H4.00003L4.00003 381.498H76.7273V394.992L30.9887 426.384V427.024H76.7273V442.329ZM53.2188 503.258C54.947 502.76 56.474 502.062 57.7997 501.162C59.1492 500.263 60.2855 499.162 61.2088 497.86C62.1558 496.582 62.8779 495.114 63.375 493.457C63.8722 491.823 64.1208 490.012 64.1208 488.023C64.1208 484.306 63.1975 481.039 61.3509 478.222C59.5043 475.429 56.8173 473.251 53.2898 471.688C49.786 470.126 45.501 469.344 40.4347 469.344C35.3684 469.344 31.0597 470.114 27.5085 471.653C23.9574 473.191 21.2467 475.369 19.3764 478.187C17.5299 481.004 16.6066 484.33 16.6066 488.165C16.6066 491.645 17.2221 494.617 18.4531 497.079C19.7079 499.564 21.4716 501.458 23.7443 502.76C26.0171 504.086 28.7041 504.749 31.8054 504.749L31.3438 507.874L31.3438 489.124H42.9205V519.557H33.7585C27.3665 519.557 21.8741 518.208 17.2813 515.509C12.7121 512.81 9.18468 509.093 6.69889 504.358C4.23677 499.624 3.00571 494.202 3.00571 488.094C3.00571 481.276 4.50902 475.287 7.51565 470.126C10.546 464.965 14.8428 460.94 20.4063 458.052C25.9934 455.187 32.6222 453.755 40.2926 453.755C46.1875 453.755 51.4432 454.607 56.0597 456.312C60.6998 458.04 64.6298 460.455 67.8495 463.556C71.0692 466.657 73.5194 470.268 75.2003 474.387C76.8812 478.506 77.7216 482.969 77.7216 487.775C77.7216 491.894 77.1179 495.729 75.9105 499.28C74.7268 502.832 73.0459 505.98 70.8679 508.726C68.6899 511.496 66.0976 513.757 63.0909 515.509C60.108 517.261 56.8173 518.385 53.2188 518.883V503.258Z"/>
</mask>
<path d="M55.8111 45.0723C58.6757 44.7882 60.9011 43.569 62.4873 41.4146C64.0734 39.2602 64.8665 36.3365 64.8665 32.6433C64.8665 30.1338 64.5114 28.015 63.8012 26.2868C63.1146 24.5585 62.1558 23.2328 60.9248 22.3095C59.6937 21.4099 58.2969 20.9601 56.7344 20.9601C55.4323 20.9127 54.296 21.185 53.3253 21.7768C52.3547 22.3923 51.5143 23.2328 50.804 24.2981C50.1175 25.3635 49.5138 26.5945 48.9929 27.9913C48.4958 29.3881 48.0696 30.8796 47.7145 32.4657L46.152 38.9998C45.4418 42.1722 44.4948 45.0841 43.3111 47.7356C42.1274 50.3871 40.6714 52.6835 38.9432 54.6248C37.215 56.5661 35.179 58.0694 32.8353 59.1348C30.4915 60.2238 27.8045 60.7801 24.7742 60.8038C20.3234 60.7801 16.4645 59.6438 13.1975 57.3947C9.95412 55.1693 7.43281 51.9496 5.63357 47.7356C3.858 43.5453 2.97021 38.4908 2.97021 32.5723C2.97022 26.7011 3.86984 21.5874 5.66908 17.2314C7.46832 12.899 10.1317 9.51355 13.6591 7.07511C17.2103 4.66033 21.6018 3.39376 26.8339 3.27539V18.1547C24.3954 18.3204 22.3594 19.0188 20.7259 20.2498C19.116 21.5046 17.8968 23.1736 17.0682 25.2569C16.2633 27.3639 15.8608 29.7432 15.8608 32.3947C15.8608 34.9989 16.2396 37.2598 16.9972 39.1774C17.7548 41.1187 18.8083 42.622 20.1577 43.6873C21.5071 44.7527 23.0578 45.2853 24.8097 45.2853C26.4432 45.2853 27.8163 44.8 28.929 43.8294C30.0417 42.8824 30.9887 41.4856 31.7699 39.639C32.5512 37.8161 33.2614 35.5789 33.9006 32.9274L35.8893 25.0083C37.3807 18.8767 39.7126 14.0353 42.885 10.4842C46.0573 6.93306 50.3305 5.16933 55.7046 5.19301C60.108 5.16933 63.9551 6.34121 67.2458 8.70863C70.5365 11.0997 73.1052 14.3786 74.9518 18.5453C76.7983 22.7119 77.7216 27.4468 77.7216 32.7498C77.7216 38.1476 76.7983 42.8587 74.9518 46.8833C73.1052 50.9316 70.5365 54.0803 67.2458 56.3294C63.9551 58.5784 60.1435 59.7385 55.8111 59.8095L55.8111 45.0723ZM4.00004 71.1465H76.7273V86.5229L46.7202 86.5229L46.7202 117.737H76.7273V133.078H4.00004L4.00004 117.737L34.0427 117.737L34.0427 86.5229H4.00004L4.00004 71.1465ZM40.3637 212.588C32.4328 212.588 25.6856 211.085 20.1222 208.078C14.5587 205.095 10.3092 201.023 7.37362 195.862C4.46169 190.725 3.00572 184.949 3.00572 178.533C3.00572 172.07 4.47352 166.27 7.40913 161.132C10.3447 155.995 14.5943 151.935 20.1577 148.952C25.7212 145.969 32.4565 144.477 40.3637 144.477C48.2945 144.477 55.0417 145.969 60.6052 148.952C66.1686 151.935 70.4063 155.995 73.3182 161.132C76.2538 166.27 77.7216 172.07 77.7216 178.533C77.7216 184.949 76.2538 190.725 73.3182 195.862C70.4063 201.023 66.1686 205.095 60.6051 208.078C55.0417 211.085 48.2945 212.588 40.3637 212.588ZM40.3637 196.999C45.501 196.999 49.8334 196.229 53.3608 194.691C56.8883 193.175 59.5635 191.033 61.3864 188.263C63.2093 185.493 64.1208 182.25 64.1208 178.533C64.1208 174.816 63.2093 171.573 61.3864 168.803C59.5635 166.033 56.8883 163.878 53.3608 162.34C49.8334 160.825 45.501 160.067 40.3637 160.067C35.2264 160.067 30.894 160.825 27.3665 162.34C23.8391 163.878 21.1639 166.033 19.3409 168.803C17.518 171.573 16.6066 174.816 16.6066 178.533C16.6066 182.25 17.518 185.493 19.3409 188.263C21.1639 191.033 23.8391 193.175 27.3665 194.691C30.894 196.229 35.2264 196.999 40.3637 196.999ZM4.00004 223.979H76.7273V252.672C76.7273 258.188 75.6738 262.887 73.5668 266.77C71.4835 270.652 68.5834 273.612 64.8665 275.648C61.1733 277.707 56.912 278.737 52.0824 278.737C47.2529 278.737 42.9915 277.695 39.2983 275.612C35.6052 273.529 32.7287 270.51 30.6691 266.557C28.6094 262.627 27.5796 257.868 27.5796 252.281V233.993H39.902V249.795C39.902 252.755 40.411 255.193 41.429 257.111C42.4707 259.052 43.903 260.496 45.7259 261.443C47.5725 262.414 49.6913 262.899 52.0824 262.899C54.4972 262.899 56.6042 262.414 58.4034 261.443C60.2264 260.496 61.635 259.052 62.6293 257.111C63.6473 255.169 64.1563 252.707 64.1563 249.724V239.355H4.00004L4.00004 223.979ZM4.00003 288.725H76.7273V317.418C76.7273 322.934 75.6738 327.633 73.5668 331.516C71.4835 335.398 68.5834 338.358 64.8665 340.394C61.1733 342.453 56.912 343.483 52.0824 343.483C47.2529 343.483 42.9915 342.441 39.2983 340.358C35.6051 338.275 32.7287 335.256 30.6691 331.303C28.6094 327.373 27.5796 322.614 27.5796 317.027L27.5796 298.739L39.902 298.739V314.541C39.902 317.501 40.411 319.939 41.429 321.857C42.4707 323.798 43.903 325.242 45.7259 326.189C47.5725 327.16 49.6913 327.645 52.0824 327.645C54.4972 327.645 56.6042 327.16 58.4034 326.189C60.2264 325.242 61.635 323.798 62.6293 321.857C63.6473 319.915 64.1563 317.453 64.1563 314.47L64.1563 304.101H4.00003L4.00003 288.725ZM76.7273 368.847H4.00003L4.00003 353.471H76.7273V368.847ZM76.7273 442.329H4.00003L4.00003 429.048L49.7742 397.407V396.874H4.00003L4.00003 381.498H76.7273V394.992L30.9887 426.384V427.024H76.7273V442.329ZM53.2188 503.258C54.947 502.76 56.474 502.062 57.7997 501.162C59.1492 500.263 60.2855 499.162 61.2088 497.86C62.1558 496.582 62.8779 495.114 63.375 493.457C63.8722 491.823 64.1208 490.012 64.1208 488.023C64.1208 484.306 63.1975 481.039 61.3509 478.222C59.5043 475.429 56.8173 473.251 53.2898 471.688C49.786 470.126 45.501 469.344 40.4347 469.344C35.3684 469.344 31.0597 470.114 27.5085 471.653C23.9574 473.191 21.2467 475.369 19.3764 478.187C17.5299 481.004 16.6066 484.33 16.6066 488.165C16.6066 491.645 17.2221 494.617 18.4531 497.079C19.7079 499.564 21.4716 501.458 23.7443 502.76C26.0171 504.086 28.7041 504.749 31.8054 504.749L31.3438 507.874L31.3438 489.124H42.9205V519.557H33.7585C27.3665 519.557 21.8741 518.208 17.2813 515.509C12.7121 512.81 9.18468 509.093 6.69889 504.358C4.23677 499.624 3.00571 494.202 3.00571 488.094C3.00571 481.276 4.50902 475.287 7.51565 470.126C10.546 464.965 14.8428 460.94 20.4063 458.052C25.9934 455.187 32.6222 453.755 40.2926 453.755C46.1875 453.755 51.4432 454.607 56.0597 456.312C60.6998 458.04 64.6298 460.455 67.8495 463.556C71.0692 466.657 73.5194 470.268 75.2003 474.387C76.8812 478.506 77.7216 482.969 77.7216 487.775C77.7216 491.894 77.1179 495.729 75.9105 499.28C74.7268 502.832 73.0459 505.98 70.8679 508.726C68.6899 511.496 66.0976 513.757 63.0909 515.509C60.108 517.261 56.8173 518.385 53.2188 518.883V503.258Z" stroke="white" stroke-width="4" mask="url(#path-1-outside-1_8_118)"/>
<path d="M55.8111 45.0723C58.6757 44.7882 60.9011 43.569 62.4873 41.4146C64.0734 39.2602 64.8665 36.3365 64.8665 32.6433C64.8665 30.1338 64.5114 28.015 63.8012 26.2868C63.1146 24.5585 62.1558 23.2328 60.9248 22.3095C59.6937 21.4099 58.2969 20.9601 56.7344 20.9601C55.4323 20.9127 54.296 21.185 53.3253 21.7768C52.3547 22.3923 51.5143 23.2328 50.804 24.2981C50.1175 25.3635 49.5138 26.5945 48.9929 27.9913C48.4958 29.3881 48.0696 30.8796 47.7145 32.4657L46.152 38.9998C45.4418 42.1722 44.4948 45.0841 43.3111 47.7356C42.1274 50.3871 40.6714 52.6835 38.9432 54.6248C37.215 56.5661 35.179 58.0694 32.8353 59.1348C30.4915 60.2238 27.8045 60.7801 24.7742 60.8038C20.3234 60.7801 16.4645 59.6438 13.1975 57.3947C9.95412 55.1693 7.43281 51.9496 5.63357 47.7356C3.858 43.5453 2.97021 38.4908 2.97021 32.5723C2.97022 26.7011 3.86984 21.5874 5.66908 17.2314C7.46832 12.899 10.1317 9.51355 13.6591 7.07511C17.2103 4.66033 21.6018 3.39376 26.8339 3.27539V18.1547C24.3954 18.3204 22.3594 19.0188 20.7259 20.2498C19.116 21.5046 17.8968 23.1736 17.0682 25.2569C16.2633 27.3639 15.8608 29.7432 15.8608 32.3947C15.8608 34.9989 16.2396 37.2598 16.9972 39.1774C17.7548 41.1187 18.8083 42.622 20.1577 43.6873C21.5071 44.7527 23.0578 45.2853 24.8097 45.2853C26.4432 45.2853 27.8163 44.8 28.929 43.8294C30.0417 42.8824 30.9887 41.4856 31.7699 39.639C32.5512 37.8161 33.2614 35.5789 33.9006 32.9274L35.8893 25.0083C37.3807 18.8767 39.7126 14.0353 42.885 10.4842C46.0573 6.93306 50.3305 5.16933 55.7046 5.19301C60.108 5.16933 63.9551 6.34121 67.2458 8.70863C70.5365 11.0997 73.1052 14.3786 74.9518 18.5453C76.7983 22.7119 77.7216 27.4468 77.7216 32.7498C77.7216 38.1476 76.7983 42.8587 74.9518 46.8833C73.1052 50.9316 70.5365 54.0803 67.2458 56.3294C63.9551 58.5784 60.1435 59.7385 55.8111 59.8095L55.8111 45.0723ZM4.00004 71.1465H76.7273V86.5229L46.7202 86.5229L46.7202 117.737H76.7273V133.078H4.00004L4.00004 117.737L34.0427 117.737L34.0427 86.5229H4.00004L4.00004 71.1465ZM40.3637 212.588C32.4328 212.588 25.6856 211.085 20.1222 208.078C14.5587 205.095 10.3092 201.023 7.37362 195.862C4.46169 190.725 3.00572 184.949 3.00572 178.533C3.00572 172.07 4.47352 166.27 7.40913 161.132C10.3447 155.995 14.5943 151.935 20.1577 148.952C25.7212 145.969 32.4565 144.477 40.3637 144.477C48.2945 144.477 55.0417 145.969 60.6052 148.952C66.1686 151.935 70.4063 155.995 73.3182 161.132C76.2538 166.27 77.7216 172.07 77.7216 178.533C77.7216 184.949 76.2538 190.725 73.3182 195.862C70.4063 201.023 66.1686 205.095 60.6051 208.078C55.0417 211.085 48.2945 212.588 40.3637 212.588ZM40.3637 196.999C45.501 196.999 49.8334 196.229 53.3608 194.691C56.8883 193.175 59.5635 191.033 61.3864 188.263C63.2093 185.493 64.1208 182.25 64.1208 178.533C64.1208 174.816 63.2093 171.573 61.3864 168.803C59.5635 166.033 56.8883 163.878 53.3608 162.34C49.8334 160.825 45.501 160.067 40.3637 160.067C35.2264 160.067 30.894 160.825 27.3665 162.34C23.8391 163.878 21.1639 166.033 19.3409 168.803C17.518 171.573 16.6066 174.816 16.6066 178.533C16.6066 182.25 17.518 185.493 19.3409 188.263C21.1639 191.033 23.8391 193.175 27.3665 194.691C30.894 196.229 35.2264 196.999 40.3637 196.999ZM4.00004 223.979H76.7273V252.672C76.7273 258.188 75.6738 262.887 73.5668 266.77C71.4835 270.652 68.5834 273.612 64.8665 275.648C61.1733 277.707 56.912 278.737 52.0824 278.737C47.2529 278.737 42.9915 277.695 39.2983 275.612C35.6052 273.529 32.7287 270.51 30.6691 266.557C28.6094 262.627 27.5796 257.868 27.5796 252.281V233.993H39.902V249.795C39.902 252.755 40.411 255.193 41.429 257.111C42.4707 259.052 43.903 260.496 45.7259 261.443C47.5725 262.414 49.6913 262.899 52.0824 262.899C54.4972 262.899 56.6042 262.414 58.4034 261.443C60.2264 260.496 61.635 259.052 62.6293 257.111C63.6473 255.169 64.1563 252.707 64.1563 249.724V239.355H4.00004L4.00004 223.979ZM4.00003 288.725H76.7273V317.418C76.7273 322.934 75.6738 327.633 73.5668 331.516C71.4835 335.398 68.5834 338.358 64.8665 340.394C61.1733 342.453 56.912 343.483 52.0824 343.483C47.2529 343.483 42.9915 342.441 39.2983 340.358C35.6051 338.275 32.7287 335.256 30.6691 331.303C28.6094 327.373 27.5796 322.614 27.5796 317.027L27.5796 298.739L39.902 298.739V314.541C39.902 317.501 40.411 319.939 41.429 321.857C42.4707 323.798 43.903 325.242 45.7259 326.189C47.5725 327.16 49.6913 327.645 52.0824 327.645C54.4972 327.645 56.6042 327.16 58.4034 326.189C60.2264 325.242 61.635 323.798 62.6293 321.857C63.6473 319.915 64.1563 317.453 64.1563 314.47L64.1563 304.101H4.00003L4.00003 288.725ZM76.7273 368.847H4.00003L4.00003 353.471H76.7273V368.847ZM76.7273 442.329H4.00003L4.00003 429.048L49.7742 397.407V396.874H4.00003L4.00003 381.498H76.7273V394.992L30.9887 426.384V427.024H76.7273V442.329ZM53.2188 503.258C54.947 502.76 56.474 502.062 57.7997 501.162C59.1492 500.263 60.2855 499.162 61.2088 497.86C62.1558 496.582 62.8779 495.114 63.375 493.457C63.8722 491.823 64.1208 490.012 64.1208 488.023C64.1208 484.306 63.1975 481.039 61.3509 478.222C59.5043 475.429 56.8173 473.251 53.2898 471.688C49.786 470.126 45.501 469.344 40.4347 469.344C35.3684 469.344 31.0597 470.114 27.5085 471.653C23.9574 473.191 21.2467 475.369 19.3764 478.187C17.5299 481.004 16.6066 484.33 16.6066 488.165C16.6066 491.645 17.2221 494.617 18.4531 497.079C19.7079 499.564 21.4716 501.458 23.7443 502.76C26.0171 504.086 28.7041 504.749 31.8054 504.749L31.3438 507.874L31.3438 489.124H42.9205V519.557H33.7585C27.3665 519.557 21.8741 518.208 17.2813 515.509C12.7121 512.81 9.18468 509.093 6.69889 504.358C4.23677 499.624 3.00571 494.202 3.00571 488.094C3.00571 481.276 4.50902 475.287 7.51565 470.126C10.546 464.965 14.8428 460.94 20.4063 458.052C25.9934 455.187 32.6222 453.755 40.2926 453.755C46.1875 453.755 51.4432 454.607 56.0597 456.312C60.6998 458.04 64.6298 460.455 67.8495 463.556C71.0692 466.657 73.5194 470.268 75.2003 474.387C76.8812 478.506 77.7216 482.969 77.7216 487.775C77.7216 491.894 77.1179 495.729 75.9105 499.28C74.7268 502.832 73.0459 505.98 70.8679 508.726C68.6899 511.496 66.0976 513.757 63.0909 515.509C60.108 517.261 56.8173 518.385 53.2188 518.883V503.258Z" stroke="black" stroke-opacity="0.2" stroke-width="4" mask="url(#path-1-outside-1_8_118)"/>
</svg>
