<svg width="80" height="485" viewBox="0 0 80 485" fill="none" xmlns="http://www.w3.org/2000/svg">
<mask id="path-1-outside-1_721_839" maskUnits="userSpaceOnUse" x="0.27832" y="0.0976562" width="79" height="484" fill="black">
<rect fill="white" x="0.27832" y="0.0976562" width="79" height="484"/>
<path d="M3.27264 480.604L3.27264 463.381L34.5937 446.798V446.087L3.27264 429.504L3.27264 412.281L50.2897 438.808H75.9999V454.077H50.2897L3.27264 480.604ZM39.6363 341.444C47.5671 341.444 54.3143 342.948 59.8778 345.954C65.4412 348.937 69.6907 353.009 72.6263 358.17C75.5383 363.307 76.9942 369.084 76.9942 375.5C76.9942 381.963 75.5264 387.763 72.5908 392.9C69.6552 398.038 65.4057 402.098 59.8422 405.081C54.2788 408.064 47.5435 409.555 39.6363 409.555C31.7054 409.555 24.9582 408.064 19.3948 405.081C13.8314 402.098 9.59366 398.038 6.68173 392.9C3.74612 387.763 2.27832 381.963 2.27832 375.5C2.27832 369.084 3.74612 363.307 6.68173 358.17C9.59366 353.009 13.8314 348.937 19.3948 345.954C24.9582 342.948 31.7054 341.444 39.6363 341.444ZM39.6363 357.034C34.499 357.034 30.1666 357.803 26.6391 359.342C23.1117 360.857 20.4365 363 18.6136 365.77C16.7906 368.539 15.8792 371.783 15.8792 375.5C15.8792 379.216 16.7906 382.46 18.6136 385.23C20.4365 388 23.1117 390.154 26.6391 391.693C30.1666 393.208 34.499 393.966 39.6363 393.966C44.7736 393.966 49.106 393.208 52.6334 391.693C56.1609 390.154 58.8361 388 60.659 385.23C62.4819 382.46 63.3934 379.216 63.3934 375.5C63.3934 371.783 62.4819 368.539 60.659 365.77C58.8361 363 56.1609 360.857 52.6334 359.342C49.106 357.803 44.7736 357.034 39.6363 357.034ZM3.27264 285.132L3.27264 269.756H50.5028C55.8058 269.756 60.4459 271.022 64.4232 273.555C68.4005 276.065 71.5018 279.58 73.7272 284.102C75.9289 288.624 77.0297 293.892 77.0297 299.905C77.0297 305.942 75.9289 311.221 73.7272 315.743C71.5018 320.265 68.4005 323.78 64.4232 326.29C60.4459 328.799 55.8058 330.054 50.5028 330.054H3.27264L3.27264 314.678H49.1888C51.9587 314.678 54.4208 314.074 56.5752 312.866C58.7296 311.635 60.4223 309.907 61.6533 307.682C62.8844 305.456 63.4999 302.864 63.4999 299.905C63.4999 296.922 62.8844 294.33 61.6533 292.128C60.4223 289.902 58.7296 288.186 56.5752 286.979C54.4208 285.748 51.9587 285.132 49.1888 285.132H3.27264ZM15.9502 259.875H3.27264L3.27264 200.145H15.9502V222.41H75.9999V237.609H15.9502L15.9502 259.875ZM3.27264 145.386L3.27264 130.01H50.5028C55.8058 130.01 60.4459 131.276 64.4232 133.809C68.4005 136.319 71.5018 139.834 73.7272 144.356C75.9289 148.878 77.0297 154.145 77.0297 160.159C77.0297 166.196 75.9289 171.475 73.7272 175.997C71.5018 180.519 68.4005 184.034 64.4232 186.544C60.4459 189.053 55.8058 190.308 50.5028 190.308H3.27264L3.27264 174.931H49.1888C51.9587 174.931 54.4208 174.328 56.5752 173.12C58.7296 171.889 60.4223 170.161 61.6533 167.936C62.8844 165.71 63.4999 163.118 63.4999 160.159C63.4999 157.176 62.8844 154.583 61.6533 152.382C60.4223 150.156 58.7296 148.44 56.5752 147.233C54.4208 146.002 51.9587 145.386 49.1888 145.386H3.27264ZM75.9999 117.359H3.27264L3.27264 88.2393C3.27264 82.889 4.06573 78.4264 5.65191 74.8516C7.23808 71.2768 9.43978 68.5897 12.257 66.7905C15.0506 64.9912 18.2703 64.0916 21.9161 64.0916C24.757 64.0916 27.2547 64.6598 29.409 65.7962C31.5397 66.9325 33.2916 68.495 34.6647 70.4837C36.0141 72.4486 36.9729 74.6977 37.5411 77.2308H38.2513C38.3697 74.4609 39.151 71.8686 40.5951 69.4538C42.0392 67.0154 44.0634 65.0386 46.6675 63.5234C49.248 62.0083 52.3257 61.2507 55.9005 61.2507C59.7594 61.2507 63.204 62.2095 66.2343 64.1271C69.2409 66.0211 71.6202 68.8265 73.3721 72.5433C75.124 76.2602 75.9999 80.8411 75.9999 86.2862V117.359ZM63.4289 101.982V89.4467C63.4289 85.1617 62.6121 82.0367 60.9786 80.0717C59.3214 78.1068 57.1197 77.1243 54.3735 77.1243C52.3612 77.1243 50.5856 77.6096 49.0468 78.5803C47.508 79.5509 46.3006 80.9358 45.4246 82.7351C44.5487 84.5107 44.1107 86.6295 44.1107 89.0916V101.982H63.4289ZM33.7059 101.982V90.5831C33.7059 88.4761 33.3389 86.6058 32.605 84.9723C31.8475 83.3151 30.7821 82.013 29.409 81.066C28.0359 80.0954 26.3905 79.6101 24.4729 79.6101C21.8451 79.6101 19.7262 80.5452 18.1164 82.4155C16.5065 84.2621 15.7016 86.8899 15.7016 90.299V101.982H33.7059ZM75.9999 51.2454H3.27264L3.27264 2.2397L15.9502 2.2397L15.9502 35.869H33.2797V4.76101L45.9573 4.76101V35.869H63.3224V2.09766L75.9999 2.09766V51.2454Z"/>
</mask>
<path d="M3.27264 480.604L3.27264 463.381L34.5937 446.798V446.087L3.27264 429.504L3.27264 412.281L50.2897 438.808H75.9999V454.077H50.2897L3.27264 480.604ZM39.6363 341.444C47.5671 341.444 54.3143 342.948 59.8778 345.954C65.4412 348.937 69.6907 353.009 72.6263 358.17C75.5383 363.307 76.9942 369.084 76.9942 375.5C76.9942 381.963 75.5264 387.763 72.5908 392.9C69.6552 398.038 65.4057 402.098 59.8422 405.081C54.2788 408.064 47.5435 409.555 39.6363 409.555C31.7054 409.555 24.9582 408.064 19.3948 405.081C13.8314 402.098 9.59366 398.038 6.68173 392.9C3.74612 387.763 2.27832 381.963 2.27832 375.5C2.27832 369.084 3.74612 363.307 6.68173 358.17C9.59366 353.009 13.8314 348.937 19.3948 345.954C24.9582 342.948 31.7054 341.444 39.6363 341.444ZM39.6363 357.034C34.499 357.034 30.1666 357.803 26.6391 359.342C23.1117 360.857 20.4365 363 18.6136 365.77C16.7906 368.539 15.8792 371.783 15.8792 375.5C15.8792 379.216 16.7906 382.46 18.6136 385.23C20.4365 388 23.1117 390.154 26.6391 391.693C30.1666 393.208 34.499 393.966 39.6363 393.966C44.7736 393.966 49.106 393.208 52.6334 391.693C56.1609 390.154 58.8361 388 60.659 385.23C62.4819 382.46 63.3934 379.216 63.3934 375.5C63.3934 371.783 62.4819 368.539 60.659 365.77C58.8361 363 56.1609 360.857 52.6334 359.342C49.106 357.803 44.7736 357.034 39.6363 357.034ZM3.27264 285.132L3.27264 269.756H50.5028C55.8058 269.756 60.4459 271.022 64.4232 273.555C68.4005 276.065 71.5018 279.58 73.7272 284.102C75.9289 288.624 77.0297 293.892 77.0297 299.905C77.0297 305.942 75.9289 311.221 73.7272 315.743C71.5018 320.265 68.4005 323.78 64.4232 326.29C60.4459 328.799 55.8058 330.054 50.5028 330.054H3.27264L3.27264 314.678H49.1888C51.9587 314.678 54.4208 314.074 56.5752 312.866C58.7296 311.635 60.4223 309.907 61.6533 307.682C62.8844 305.456 63.4999 302.864 63.4999 299.905C63.4999 296.922 62.8844 294.33 61.6533 292.128C60.4223 289.902 58.7296 288.186 56.5752 286.979C54.4208 285.748 51.9587 285.132 49.1888 285.132H3.27264ZM15.9502 259.875H3.27264L3.27264 200.145H15.9502V222.41H75.9999V237.609H15.9502L15.9502 259.875ZM3.27264 145.386L3.27264 130.01H50.5028C55.8058 130.01 60.4459 131.276 64.4232 133.809C68.4005 136.319 71.5018 139.834 73.7272 144.356C75.9289 148.878 77.0297 154.145 77.0297 160.159C77.0297 166.196 75.9289 171.475 73.7272 175.997C71.5018 180.519 68.4005 184.034 64.4232 186.544C60.4459 189.053 55.8058 190.308 50.5028 190.308H3.27264L3.27264 174.931H49.1888C51.9587 174.931 54.4208 174.328 56.5752 173.12C58.7296 171.889 60.4223 170.161 61.6533 167.936C62.8844 165.71 63.4999 163.118 63.4999 160.159C63.4999 157.176 62.8844 154.583 61.6533 152.382C60.4223 150.156 58.7296 148.44 56.5752 147.233C54.4208 146.002 51.9587 145.386 49.1888 145.386H3.27264ZM75.9999 117.359H3.27264L3.27264 88.2393C3.27264 82.889 4.06573 78.4264 5.65191 74.8516C7.23808 71.2768 9.43978 68.5897 12.257 66.7905C15.0506 64.9912 18.2703 64.0916 21.9161 64.0916C24.757 64.0916 27.2547 64.6598 29.409 65.7962C31.5397 66.9325 33.2916 68.495 34.6647 70.4837C36.0141 72.4486 36.9729 74.6977 37.5411 77.2308H38.2513C38.3697 74.4609 39.151 71.8686 40.5951 69.4538C42.0392 67.0154 44.0634 65.0386 46.6675 63.5234C49.248 62.0083 52.3257 61.2507 55.9005 61.2507C59.7594 61.2507 63.204 62.2095 66.2343 64.1271C69.2409 66.0211 71.6202 68.8265 73.3721 72.5433C75.124 76.2602 75.9999 80.8411 75.9999 86.2862V117.359ZM63.4289 101.982V89.4467C63.4289 85.1617 62.6121 82.0367 60.9786 80.0717C59.3214 78.1068 57.1197 77.1243 54.3735 77.1243C52.3612 77.1243 50.5856 77.6096 49.0468 78.5803C47.508 79.5509 46.3006 80.9358 45.4246 82.7351C44.5487 84.5107 44.1107 86.6295 44.1107 89.0916V101.982H63.4289ZM33.7059 101.982V90.5831C33.7059 88.4761 33.3389 86.6058 32.605 84.9723C31.8475 83.3151 30.7821 82.013 29.409 81.066C28.0359 80.0954 26.3905 79.6101 24.4729 79.6101C21.8451 79.6101 19.7262 80.5452 18.1164 82.4155C16.5065 84.2621 15.7016 86.8899 15.7016 90.299V101.982H33.7059ZM75.9999 51.2454H3.27264L3.27264 2.2397L15.9502 2.2397L15.9502 35.869H33.2797V4.76101L45.9573 4.76101V35.869H63.3224V2.09766L75.9999 2.09766V51.2454Z" stroke="#28404F" stroke-width="4" mask="url(#path-1-outside-1_721_839)"/>
<path d="M3.27264 480.604L3.27264 463.381L34.5937 446.798V446.087L3.27264 429.504L3.27264 412.281L50.2897 438.808H75.9999V454.077H50.2897L3.27264 480.604ZM39.6363 341.444C47.5671 341.444 54.3143 342.948 59.8778 345.954C65.4412 348.937 69.6907 353.009 72.6263 358.17C75.5383 363.307 76.9942 369.084 76.9942 375.5C76.9942 381.963 75.5264 387.763 72.5908 392.9C69.6552 398.038 65.4057 402.098 59.8422 405.081C54.2788 408.064 47.5435 409.555 39.6363 409.555C31.7054 409.555 24.9582 408.064 19.3948 405.081C13.8314 402.098 9.59366 398.038 6.68173 392.9C3.74612 387.763 2.27832 381.963 2.27832 375.5C2.27832 369.084 3.74612 363.307 6.68173 358.17C9.59366 353.009 13.8314 348.937 19.3948 345.954C24.9582 342.948 31.7054 341.444 39.6363 341.444ZM39.6363 357.034C34.499 357.034 30.1666 357.803 26.6391 359.342C23.1117 360.857 20.4365 363 18.6136 365.77C16.7906 368.539 15.8792 371.783 15.8792 375.5C15.8792 379.216 16.7906 382.46 18.6136 385.23C20.4365 388 23.1117 390.154 26.6391 391.693C30.1666 393.208 34.499 393.966 39.6363 393.966C44.7736 393.966 49.106 393.208 52.6334 391.693C56.1609 390.154 58.8361 388 60.659 385.23C62.4819 382.46 63.3934 379.216 63.3934 375.5C63.3934 371.783 62.4819 368.539 60.659 365.77C58.8361 363 56.1609 360.857 52.6334 359.342C49.106 357.803 44.7736 357.034 39.6363 357.034ZM3.27264 285.132L3.27264 269.756H50.5028C55.8058 269.756 60.4459 271.022 64.4232 273.555C68.4005 276.065 71.5018 279.58 73.7272 284.102C75.9289 288.624 77.0297 293.892 77.0297 299.905C77.0297 305.942 75.9289 311.221 73.7272 315.743C71.5018 320.265 68.4005 323.78 64.4232 326.29C60.4459 328.799 55.8058 330.054 50.5028 330.054H3.27264L3.27264 314.678H49.1888C51.9587 314.678 54.4208 314.074 56.5752 312.866C58.7296 311.635 60.4223 309.907 61.6533 307.682C62.8844 305.456 63.4999 302.864 63.4999 299.905C63.4999 296.922 62.8844 294.33 61.6533 292.128C60.4223 289.902 58.7296 288.186 56.5752 286.979C54.4208 285.748 51.9587 285.132 49.1888 285.132H3.27264ZM15.9502 259.875H3.27264L3.27264 200.145H15.9502V222.41H75.9999V237.609H15.9502L15.9502 259.875ZM3.27264 145.386L3.27264 130.01H50.5028C55.8058 130.01 60.4459 131.276 64.4232 133.809C68.4005 136.319 71.5018 139.834 73.7272 144.356C75.9289 148.878 77.0297 154.145 77.0297 160.159C77.0297 166.196 75.9289 171.475 73.7272 175.997C71.5018 180.519 68.4005 184.034 64.4232 186.544C60.4459 189.053 55.8058 190.308 50.5028 190.308H3.27264L3.27264 174.931H49.1888C51.9587 174.931 54.4208 174.328 56.5752 173.12C58.7296 171.889 60.4223 170.161 61.6533 167.936C62.8844 165.71 63.4999 163.118 63.4999 160.159C63.4999 157.176 62.8844 154.583 61.6533 152.382C60.4223 150.156 58.7296 148.44 56.5752 147.233C54.4208 146.002 51.9587 145.386 49.1888 145.386H3.27264ZM75.9999 117.359H3.27264L3.27264 88.2393C3.27264 82.889 4.06573 78.4264 5.65191 74.8516C7.23808 71.2768 9.43978 68.5897 12.257 66.7905C15.0506 64.9912 18.2703 64.0916 21.9161 64.0916C24.757 64.0916 27.2547 64.6598 29.409 65.7962C31.5397 66.9325 33.2916 68.495 34.6647 70.4837C36.0141 72.4486 36.9729 74.6977 37.5411 77.2308H38.2513C38.3697 74.4609 39.151 71.8686 40.5951 69.4538C42.0392 67.0154 44.0634 65.0386 46.6675 63.5234C49.248 62.0083 52.3257 61.2507 55.9005 61.2507C59.7594 61.2507 63.204 62.2095 66.2343 64.1271C69.2409 66.0211 71.6202 68.8265 73.3721 72.5433C75.124 76.2602 75.9999 80.8411 75.9999 86.2862V117.359ZM63.4289 101.982V89.4467C63.4289 85.1617 62.6121 82.0367 60.9786 80.0717C59.3214 78.1068 57.1197 77.1243 54.3735 77.1243C52.3612 77.1243 50.5856 77.6096 49.0468 78.5803C47.508 79.5509 46.3006 80.9358 45.4246 82.7351C44.5487 84.5107 44.1107 86.6295 44.1107 89.0916V101.982H63.4289ZM33.7059 101.982V90.5831C33.7059 88.4761 33.3389 86.6058 32.605 84.9723C31.8475 83.3151 30.7821 82.013 29.409 81.066C28.0359 80.0954 26.3905 79.6101 24.4729 79.6101C21.8451 79.6101 19.7262 80.5452 18.1164 82.4155C16.5065 84.2621 15.7016 86.8899 15.7016 90.299V101.982H33.7059ZM75.9999 51.2454H3.27264L3.27264 2.2397L15.9502 2.2397L15.9502 35.869H33.2797V4.76101L45.9573 4.76101V35.869H63.3224V2.09766L75.9999 2.09766V51.2454Z" stroke="black" stroke-opacity="0.2" stroke-width="4" mask="url(#path-1-outside-1_721_839)"/>
</svg>
